<svg height='100px' width='100px'  fill="#000000" xmlns="http://www.w3.org/2000/svg" xmlns:xlink="http://www.w3.org/1999/xlink" version="1.1" x="0px" y="0px" viewBox="0 0 90 90" style="enable-background:new 0 0 90 90;" xml:space="preserve"><path d="M78.2250977,21.1679688H11.7744141c-1.2382813,0-2.2460938,1.0078125-2.2460938,2.2460938v43.171875  c0,1.2382813,1.0078125,2.2460938,2.2460938,2.2460938h66.4506836c1.2382813,0,2.2460938-1.0078125,2.2460938-2.2460938v-43.171875  C80.4711914,22.1757813,79.4633789,21.1679688,78.2250977,21.1679688z M79.9711914,66.5859375  c0,0.9628906-0.7832031,1.7460938-1.7460938,1.7460938H11.7744141c-0.9628906,0-1.7460938-0.7832031-1.7460938-1.7460938V27.2835693  l26.3691406,13.9840088C38.7695313,42.5263672,41.8842773,43.1552734,45,43.1552734  c3.1152344,0,6.230957-0.6298828,8.6025391-1.8876953l26.3686523-13.9840088V66.5859375z M79.9711914,26.7178955  L53.3681641,40.8261719c-4.6142578,2.4472656-12.1220703,2.4472656-16.7363281,0L10.0283203,26.7178955v-3.303833  c0-0.9628906,0.7832031-1.7460938,1.7460938-1.7460938h66.4506836c0.9628906,0,1.7460938,0.7832031,1.7460938,1.7460938V26.7178955z  "></path><path d="M75.5112305,53.8320313H57.894043V64.46875h17.6171875V53.8320313z M75.0112305,63.96875H58.394043v-9.6367188h16.6171875  V63.96875z"></path><rect x="61.5332031" y="57.1943359" width="10.3388672" height="0.5"></rect><rect x="61.5332031" y="60.6064453" width="10.3388672" height="0.5"></rect></svg>